<svg xmlns="http://www.w3.org/2000/svg" width="420" height="170" viewBox="0 0 420 170" role="img" aria-label="Top repository languages">
  <rect x="0.5" y="0.5" width="419" height="169" rx="12" fill="#0d1117" stroke="#30363d"/>
  <text x="24" y="34" fill="#58a6ff" font-family="-apple-system,BlinkMacSystemFont,Segoe UI,Helvetica,Arial,sans-serif" font-size="18" font-weight="700">Repository Languages</text>
  <text x="24" y="50" fill="#8b949e" font-family="-apple-system,BlinkMacSystemFont,Segoe UI,Helvetica,Arial,sans-serif" font-size="11">Aggregated across public, non-fork repositories</text>
  <clipPath id="bar"><rect x="24" y="58" width="372" height="8" rx="4"/></clipPath><g clip-path="url(#bar)"><rect x="24.00" y="58" width="183.83" height="8" fill="#3572A5"/><rect x="207.83" y="58" width="99.56" height="8" fill="#f1e05a"/><rect x="307.40" y="58" width="57.19" height="8" fill="#4F5D95"/><rect x="364.59" y="58" width="17.60" height="8" fill="#3178c6"/><rect x="382.19" y="58" width="13.81" height="8" fill="#663399"/></g>
  <g font-family="-apple-system,BlinkMacSystemFont,Segoe UI,Helvetica,Arial,sans-serif"><circle cx="28" cy="84" r="4" fill="#3572A5"/><text x="39" y="88" fill="#f0f6fc" font-size="12" font-weight="600">Python</text><text x="390" y="88" fill="#8b949e" font-size="12" text-anchor="end">49.4%</text><circle cx="28" cy="99" r="4" fill="#f1e05a"/><text x="39" y="103" fill="#f0f6fc" font-size="12" font-weight="600">JavaScript</text><text x="390" y="103" fill="#8b949e" font-size="12" text-anchor="end">26.8%</text><circle cx="28" cy="114" r="4" fill="#4F5D95"/><text x="39" y="118" fill="#f0f6fc" font-size="12" font-weight="600">PHP</text><text x="390" y="118" fill="#8b949e" font-size="12" text-anchor="end">15.4%</text><circle cx="28" cy="129" r="4" fill="#3178c6"/><text x="39" y="133" fill="#f0f6fc" font-size="12" font-weight="600">TypeScript</text><text x="390" y="133" fill="#8b949e" font-size="12" text-anchor="end">4.7%</text><circle cx="28" cy="144" r="4" fill="#663399"/><text x="39" y="148" fill="#f0f6fc" font-size="12" font-weight="600">CSS</text><text x="390" y="148" fill="#8b949e" font-size="12" text-anchor="end">3.7%</text></g>
</svg>